<svg xmlns="http://www.w3.org/2000/svg" viewBox="0 0 512 512"><path fill="#e91e63" d="M123 317a48 48 0 01-97 0c0-27 22-49 48-49h49v49zM147 317a48 48 0 0197 0v121a48 48 0 01-97 0V317z"/><path fill="#03a9f4" d="M195 123a48 48 0 010-97c27 0 49 22 49 48v49h-49zM195 147a48 48 0 010 97H74a48 48 0 010-97h121z"/><path fill="#4caf50" d="M389 195a48 48 0 0197 0c0 27-22 49-48 49h-49v-49zM365 195a48 48 0 01-97 0V74a48 48 0 0197 0v121z"/><path fill="#ff9800" d="M317 389a48 48 0 010 97c-27 0-49-22-49-48v-49h49zM317 365a48 48 0 010-97h121a48 48 0 010 97H317z"/></svg>