<svg xmlns="http://www.w3.org/2000/svg" width="933.333" height="933.333" version="1" viewBox="0 0 700 700"><path d="M258.5 36.2C233.7 39.4 212.3 57.4 204 82c-2.9 8.5-3.6 24.8-1.4 34 4.5 19.3 18.4 36.6 36.2 45.2 12.1 5.7 15.1 6.1 56.5 6.3l37.7.2v-36.6c0-28.1-.4-38.2-1.5-43.6-2.1-10.1-8.6-22.2-16.2-30.5-6.2-6.7-19.3-16-22.6-16-.9 0-1.8-.4-2.1-.9-.6-.9-6.9-2.7-12.9-3.6-6.2-1-13.1-1.1-19.2-.3zM427.7 35.6c-.1.1-2.4.5-5.1.8-19.5 2.6-39.5 17.4-48.6 36-7.1 14.3-6.9 10.5-6.7 114.1l.2 93 2.8 8c6.9 19.5 20.3 33.6 38.7 40.9 8.9 3.5 10.9 3.9 23.5 4.2 10.1.2 11.8 0 20.5-3 21-7.1 34.9-20.8 42.6-42.2l2.9-7.9.3-91c.3-67.7 0-92.8-.9-98-4.7-27.2-26.5-49.1-53.9-54-3.5-.7-15.8-1.3-16.3-.9zM85 203.3c-33.8 8.8-55.1 43-48 77.2 4.9 24 24.1 43.9 48.6 50.5 6.5 1.8 12 1.9 100.4 1.7l93.5-.2 8-2.8c22.1-7.8 35.3-21.8 43.6-46.2.7-2.2 1.4-9 1.5-15.2.3-15.5-2.5-25.1-11.2-38.3-8.7-13.3-21.5-22.3-38.6-27-6.8-1.9-10.6-2-98.2-1.9-90.7 0-91.1 0-99.6 2.2zM587.5 201.5c-.5.2-3.7 1.1-7 2-22.4 6.6-39.9 24.4-46.1 47-1.4 5-1.7 12.3-1.9 44.3l-.2 38.3 39.6-.3 39.6-.3 7.3-2.7c10.9-4 17.9-8.4 26-16.3 3.9-3.8 7.2-7.4 7.2-7.8 0-.5 1.1-2.3 2.4-4 5.2-7.1 10.4-25.4 10.1-35.7-1-28.9-19.1-53-46.9-62.2-4.4-1.4-9.4-2.1-17.6-2.3-6.3-.2-11.9-.2-12.5 0zM85 369.1c-22.9 6.2-41.2 24.4-47 46.7-6.2 23.8 0 46.4 17.4 63.8 7.9 7.8 14.8 12.1 25.8 16.1 6.4 2.4 8.8 2.7 19.8 2.7 13.6 0 17.7-.8 28.5-5.8 17.3-8.1 31-24.3 36.1-43.1 1.4-5 1.7-12.4 1.9-44.3l.2-38.2-37.6.1c-34.4 0-38.2.2-45.1 2zM250.9 369c-24.2 6.2-42.7 25.3-48.3 49.9-1.4 6.3-1.6 17.6-1.6 97.4.1 56 .5 91.9 1.1 94.7 3 13.9 10.3 26.5 20.6 36 16.4 15 38.7 20.7 60.3 15.4 17.6-4.3 34.8-18.2 42.8-34.5 7.4-15 7.2-11.5 7.2-112.9-.1-84.5-.2-91-1.9-97.6-3.7-14.2-12.1-27.4-22.8-35.9-6.7-5.2-16.2-10.5-19-10.5-1 0-2.3-.4-2.8-.8-3.8-3.4-24.5-4-35.6-1.2zM420 368.1c-17.8 3.5-34.9 16-44.6 32.6-7.8 13.1-10.4 33.5-6.4 48.2 6.4 23 21.2 38.9 43.6 46.8l7.9 2.8 93 .3 93 .2 8.5-2.3c12-3.2 21-8.5 30.2-17.7 20.1-20.3 25-51 12-75.8-8.9-17.2-24.6-29.6-44.1-34.9-3.8-1.1-187.8-1.2-193.1-.2zM367.3 571.4c.2 21.5.6 40.1.9 41.2 3.6 12.5 8.3 21.4 15.4 29.3 20.6 22.7 50.9 28.8 77.9 15.7 43.8-21.3 50.5-80.2 12.5-110.7-8.1-6.5-15.3-9.9-29-13.7-.8-.2-18.7-.5-39.8-.7l-38.3-.3.4 39.2z"/></svg>